<svg width="400" height="300" xmlns="http://www.w3.org/2000/svg">
  <!-- Niño 1 -->
  <circle cx="120" cy="100" r="40" fill="#FFD699" stroke="#000" stroke-width="2"/>
  <circle cx="110" cy="90" r="5" fill="#000"/>
  <circle cx="130" cy="90" r="5" fill="#000"/>
  <path d="M115 110 Q 120 120 125 110" stroke="#000" stroke-width="2" fill="none"/>
  <rect x="100" y="140" width="40" height="80" fill="#5B9BD5" rx="5" ry="5"/>
  <rect x="85" y="140" width="15" height="60" fill="#FFD699" rx="5" ry="5"/>
  <rect x="140" y="140" width="15" height="60" fill="#FFD699" rx="5" ry="5"/>
  <rect x="100" y="220" width="15" height="30" fill="#8064A2" rx="2" ry="2"/>
  <rect x="125" y="220" width="15" height="30" fill="#8064A2" rx="2" ry="2"/>
  
  <!-- Niña -->
  <circle cx="220" cy="100" r="40" fill="#FFCCCC" stroke="#000" stroke-width="2"/>
  <circle cx="210" cy="90" r="5" fill="#000"/>
  <circle cx="230" cy="90" r="5" fill="#000"/>
  <path d="M215 110 Q 220 120 225 110" stroke="#000" stroke-width="2" fill="none"/>
  <path d="M220 60 Q 240 30 260 60" stroke="#FF6699" stroke-width="4" fill="none"/>
  <path d="M220 60 Q 200 30 180 60" stroke="#FF6699" stroke-width="4" fill="none"/>
  <rect x="200" y="140" width="40" height="80" fill="#FF99CC" rx="5" ry="5"/>
  <rect x="185" y="140" width="15" height="60" fill="#FFCCCC" rx="5" ry="5"/>
  <rect x="240" y="140" width="15" height="60" fill="#FFCCCC" rx="5" ry="5"/>
  <rect x="200" y="220" width="15" height="30" fill="#FF6699" rx="2" ry="2"/>
  <rect x="225" y="220" width="15" height="30" fill="#FF6699" rx="2" ry="2"/>
  
  <!-- Niño 2 -->
  <circle cx="320" cy="100" r="40" fill="#D9D9D9" stroke="#000" stroke-width="2"/>
  <circle cx="310" cy="90" r="5" fill="#000"/>
  <circle cx="330" cy="90" r="5" fill="#000"/>
  <path d="M315 110 Q 320 120 325 110" stroke="#000" stroke-width="2" fill="none"/>
  <rect x="300" y="140" width="40" height="80" fill="#70AD47" rx="5" ry="5"/>
  <rect x="285" y="140" width="15" height="60" fill="#D9D9D9" rx="5" ry="5"/>
  <rect x="340" y="140" width="15" height="60" fill="#D9D9D9" rx="5" ry="5"/>
  <rect x="300" y="220" width="15" height="30" fill="#4472C4" rx="2" ry="2"/>
  <rect x="325" y="220" width="15" height="30" fill="#4472C4" rx="2" ry="2"/>
  
  <!-- Texto -->
  <text x="200" y="280" text-anchor="middle" font-family="Arial" font-size="24" fill="#333">¡Hola amigos!</text>
</svg>
